<svg xmlns="http://www.w3.org/2000/svg" xmlns:xlink="http://www.w3.org/1999/xlink" contentStyleType="text/css" height="1283px" preserveAspectRatio="none" style="width:1138px;height:1283px;background:#FFFFFF;" version="1.1" viewBox="0 0 1138 1283" width="1138px" zoomAndPan="magnify"><title>Operation: EarthCore &#8212; Deployment View</title><defs/><g><text fill="#000000" font-family="sans-serif" font-size="14" font-weight="bold" lengthAdjust="spacing" textLength="330.292" x="396.854" y="22.9951">Operation: EarthCore &#8212; Deployment View</text><!--cluster devbox--><g id="cluster_devbox"><polygon fill="none" points="515,53.2969,525,43.2969,784,43.2969,784,177.2969,774,187.2969,515,187.2969,515,53.2969" style="stroke:#181818;stroke-width:1.0;"/><line style="stroke:#181818;stroke-width:1.0;" x1="774" x2="784" y1="53.2969" y2="43.2969"/><line style="stroke:#181818;stroke-width:1.0;" x1="515" x2="774" y1="53.2969" y2="53.2969"/><line style="stroke:#181818;stroke-width:1.0;" x1="774" x2="774" y1="53.2969" y2="187.2969"/><text fill="#000000" font-family="sans-serif" font-size="14" font-weight="bold" lengthAdjust="spacing" textLength="175.6973" x="557.6514" y="69.292">Development Machine</text><text fill="#000000" font-family="sans-serif" font-size="14" font-weight="bold" lengthAdjust="spacing" textLength="122.9854" x="584.0073" y="85.5889">(team member)</text></g><!--cluster ci--><g id="cluster_ci"><polygon fill="none" points="392,262.2969,402,252.2969,670,252.2969,670,611.0169,660,621.0169,392,621.0169,392,262.2969" style="stroke:#181818;stroke-width:1.0;"/><line style="stroke:#181818;stroke-width:1.0;" x1="660" x2="670" y1="262.2969" y2="252.2969"/><line style="stroke:#181818;stroke-width:1.0;" x1="392" x2="660" y1="262.2969" y2="262.2969"/><line style="stroke:#181818;stroke-width:1.0;" x1="660" x2="660" y1="262.2969" y2="621.0169"/><text fill="#000000" font-family="sans-serif" font-size="14" font-weight="bold" lengthAdjust="spacing" textLength="118.1045" x="467.9478" y="278.292">GitHub Actions</text><text fill="#000000" font-family="sans-serif" font-size="14" font-weight="bold" lengthAdjust="spacing" textLength="202.959" x="425.5205" y="294.5889">CI Runner (ubuntu-latest)</text></g><!--cluster github--><g id="cluster_github"><path d="M214.764,720.5933 C221.4695,706.876 234.6381,704.9118 242.5945,719.3571 C252.1405,705.5353 261.2391,704.4647 272.0696,717.9718 C283.2653,700.0063 294.0462,700.7175 307.4105,715.6416 C317.0206,699.9114 331.7108,702.9176 337.9179,718.9138 C345.2546,702.1319 358.1179,701.188 367.9407,716.595 C379.4412,702.9546 388.7529,704.4697 397.0585,719.8056 C405.8698,706.007 417.3021,704.7681 426.3718,719.5405 C434.7595,705.8963 450.2726,706.4719 458.2913,719.9744 C465.5081,706.0071 474.0065,705.797 485.2827,715.3075 C494.6323,702.1152 509.6101,700.9372 517.066,717.3411 C527.7721,701.4959 540.6301,705.1644 549.4132,719.4084 C559.5412,707.6051 568.927,708.1681 577.4171,721.2514 C586.7378,704.7792 596.9189,704.0122 609.3499,717.9896 C621.3618,702.5674 635.7251,706.732 643,723.0169 C644.9554,721.9965 646.1135,722.3542 646.4199,724.6948 C668.973,737.0292 667.4637,755.4469 649.1989,770.2703 C670.0437,791.0467 666.4651,815.0799 636,823.0169 C638.1973,821.3395 640.2499,822.3517 640.8149,824.8839 C632.0593,839.3986 617.5481,844.2352 607.1669,826.5845 C597.8459,840.656 587.6285,842.2019 575.7523,829.5931 C565.8882,844.2932 554.741,842.4583 545.1155,829.3303 C536.3838,841.3978 527.848,845.0209 517.3045,831.2829 C508.1735,843.9938 497.6799,844.0184 488.8082,830.9958 C478.4353,844.1652 463.3529,844.9388 455.8882,827.8335 C447.7451,842.5429 436.602,845.1953 424.2318,832.7638 C415.3723,843.8377 402.8164,844.4942 397.6509,829.0598 C387.6008,845.5191 377.2135,843.9741 365.5348,830.8264 C357.9152,844.6181 345.0538,846.9032 336.8564,831.3919 C325.1551,845.7152 312.5686,845.5854 305.3409,827.0952 C295.7415,840.429 284.1493,840.6242 275.8184,825.7668 C265.8028,841.076 251.9956,841.9612 242.1333,825.6036 C224.7309,838.6897 212.4575,838.5109 204,816.0169 C204.8881,814.8832 206.0773,814.8253 206.813,816.1885 C185.5969,803.6785 183.8808,788.8258 204.2444,773.7963 C179.228,754.0632 179.0767,729.0926 211,716.0169 C214.2428,715.9579 215.5728,717.3199 214.764,720.5933 " fill="none" style="stroke:#181818;stroke-width:1.0;"/><text fill="#000000" font-family="sans-serif" font-size="14" font-weight="bold" lengthAdjust="spacing" textLength="54.6875" x="396.1563" y="734.012">GitHub</text></g><!--cluster itchio--><g id="cluster_itchio"><path d="M756.2276,724.4981 C761.65,718.2824 767.1134,718.5234 771.6772,725.5035 C774.4139,718.0281 781.6229,717.1985 786.2515,723.5024 C791.4392,714.8307 797.259,714.5839 802.7643,723.199 C807.5426,717.0365 812.6763,717.4762 816.8799,723.8464 C821.6683,716.1594 827.6541,716.5032 832.7868,723.4726 C837.0411,716.2379 843.4478,715.097 848.0577,723.1166 C852.3029,715.9845 856.5881,717.3505 861.3495,722.5607 C866.8252,715.7757 872.1506,715.3155 877.5143,722.6885 C882.5392,714.0604 889.3959,715.5384 894.0888,723.0298 C898.5045,717.0967 903.6188,717.0957 907.7645,723.3333 C912.6716,716.5869 920.0293,717.3487 923.6235,724.7998 C931.7678,717.0584 941.2865,720.9589 944,731.0169 C944.5328,730.2495 945.3231,730.4739 945.6794,731.2135 C956.2227,735.364 956.9455,744.8014 947.5609,750.8603 C955.8824,755.6849 956.6691,764.6688 948.1828,770.0384 C958.4491,777.9064 955.8719,784.9845 946.011,790.741 C952.8864,802.6849 953.3581,811.6971 937,815.0169 C937.9649,814.6096 938.5576,814.8267 938.7398,815.9227 C935.0307,824.1728 927.387,825.692 922.1244,817.4918 C919.0905,824.0328 912.3831,825.3372 908.1423,818.7802 C903.825,825.9975 897.3248,825.0616 893.0168,818.7698 C888.4294,826.1939 882.181,827.1475 876.9328,819.4737 C873.2221,825.5291 866.4991,826.6311 862.3221,820.0112 C858.0308,827.7829 851.5246,827.2035 846.363,821.0054 C841.8338,827.983 836.4818,827.361 832.0955,820.8543 C828.1359,829.5083 820.2307,829.624 816.2132,820.9072 C811.0394,827.7048 806.7865,826.925 802.9871,819.6183 C796.4978,826.561 790.7557,826.6508 786.4813,817.3656 C781.9889,823.4195 777.6372,825.0193 772.7363,817.7882 C761.0328,825.9057 750.1056,824.1967 748,808.0169 C748.4968,808.1979 748.5704,808.5357 748.1746,808.8943 C739.4022,803.4349 738.9877,797.3024 745.8049,789.8983 C736.1153,785.2798 734.7247,777.9168 743.706,771.2023 C734.5665,763.1249 735.5028,756.8838 745.8239,750.8295 C737.1102,737.7218 740.3334,729.1231 755,724.0169 C755.5368,723.5811 756.1657,723.7226 756.2276,724.4981 " fill="none" style="stroke:#181818;stroke-width:1.0;"/><text fill="#000000" font-family="sans-serif" font-size="14" font-weight="bold" lengthAdjust="spacing" textLength="49.4922" x="821.2539" y="742.012">itch.io</text></g><!--cluster winmachine--><g id="cluster_winmachine"><polygon fill="none" points="834,913.0169,844,903.0169,1121,903.0169,1121,1229.0169,1111,1239.0169,834,1239.0169,834,913.0169" style="stroke:#181818;stroke-width:1.0;"/><line style="stroke:#181818;stroke-width:1.0;" x1="1111" x2="1121" y1="913.0169" y2="903.0169"/><line style="stroke:#181818;stroke-width:1.0;" x1="834" x2="1111" y1="913.0169" y2="913.0169"/><line style="stroke:#181818;stroke-width:1.0;" x1="1111" x2="1111" y1="913.0169" y2="1239.0169"/><text fill="#000000" font-family="sans-serif" font-size="14" font-weight="bold" lengthAdjust="spacing" textLength="211.5449" x="867.7275" y="929.012">Customer / Player Machine</text><text fill="#000000" font-family="sans-serif" font-size="14" font-weight="bold" lengthAdjust="spacing" textLength="83.9111" x="931.5444" y="945.3089">(Windows)</text></g><!--cluster linuxmachine--><g id="cluster_linuxmachine"><polygon fill="none" points="16,913.0169,26,903.0169,303,903.0169,303,1237.5169,293,1247.5169,16,1247.5169,16,913.0169" style="stroke:#181818;stroke-width:1.0;"/><line style="stroke:#181818;stroke-width:1.0;" x1="293" x2="303" y1="913.0169" y2="903.0169"/><line style="stroke:#181818;stroke-width:1.0;" x1="16" x2="293" y1="913.0169" y2="913.0169"/><line style="stroke:#181818;stroke-width:1.0;" x1="293" x2="293" y1="913.0169" y2="1247.5169"/><text fill="#000000" font-family="sans-serif" font-size="14" font-weight="bold" lengthAdjust="spacing" textLength="211.5449" x="49.7275" y="929.012">Customer / Player Machine</text><text fill="#000000" font-family="sans-serif" font-size="14" font-weight="bold" lengthAdjust="spacing" textLength="55.4805" x="127.7598" y="945.3089">(Linux)</text></g><!--entity editor--><g id="elem_editor"><rect fill="#F1F1F1" height="55.5938" rx="2.5" ry="2.5" style="stroke:#181818;stroke-width:0.5;" width="202.2041" x="558" y="107.2969"/><polygon fill="#F1F1F1" points="743.2041,112.2969,743.2041,126.2969,755.2041,126.2969,755.2041,118.2969,749.2041,112.2969,743.2041,112.2969" style="stroke:#181818;stroke-width:0.5;"/><line style="stroke:#181818;stroke-width:0.5;" x1="749.2041" x2="749.2041" y1="112.2969" y2="118.2969"/><line style="stroke:#181818;stroke-width:0.5;" x1="755.2041" x2="749.2041" y1="118.2969" y2="118.2969"/><text fill="#000000" font-family="sans-serif" font-size="14" lengthAdjust="spacing" textLength="36.7842" x="568" y="133.292">Unity</text><text fill="#000000" font-family="sans-serif" font-size="14" lengthAdjust="spacing" textLength="4.4502" x="604.7842" y="133.292">&#160;</text><text fill="#000000" font-family="sans-serif" font-size="14" lengthAdjust="spacing" textLength="41.4326" x="609.2344" y="133.292">Editor</text><text fill="#000000" font-family="sans-serif" font-size="14" lengthAdjust="spacing" textLength="4.4502" x="650.667" y="133.292">&#160;</text><text fill="#000000" font-family="sans-serif" font-size="14" lengthAdjust="spacing" textLength="85.0869" x="655.1172" y="133.292">6000.4.10f1</text><text fill="#000000" font-family="sans-serif" font-size="14" lengthAdjust="spacing" textLength="48.8975" x="568" y="149.5889">project</text><text fill="#000000" font-family="sans-serif" font-size="14" lengthAdjust="spacing" textLength="4.4502" x="616.8975" y="149.5889">&#160;</text><text fill="#000000" font-family="sans-serif" font-size="14" lengthAdjust="spacing" textLength="62.4395" x="621.3477" y="149.5889">(source/)</text></g><!--entity ciunity--><g id="elem_ciunity"><rect fill="#F1F1F1" height="55.5938" rx="2.5" ry="2.5" style="stroke:#181818;stroke-width:0.5;" width="202.2041" x="422" y="393.0169"/><polygon fill="#F1F1F1" points="607.2041,398.0169,607.2041,412.0169,619.2041,412.0169,619.2041,404.0169,613.2041,398.0169,607.2041,398.0169" style="stroke:#181818;stroke-width:0.5;"/><line style="stroke:#181818;stroke-width:0.5;" x1="613.2041" x2="613.2041" y1="398.0169" y2="404.0169"/><line style="stroke:#181818;stroke-width:0.5;" x1="619.2041" x2="613.2041" y1="404.0169" y2="404.0169"/><text fill="#000000" font-family="sans-serif" font-size="14" lengthAdjust="spacing" textLength="36.7842" x="432" y="419.012">Unity</text><text fill="#000000" font-family="sans-serif" font-size="14" lengthAdjust="spacing" textLength="4.4502" x="468.7842" y="419.012">&#160;</text><text fill="#000000" font-family="sans-serif" font-size="14" lengthAdjust="spacing" textLength="41.4326" x="473.2344" y="419.012">Editor</text><text fill="#000000" font-family="sans-serif" font-size="14" lengthAdjust="spacing" textLength="4.4502" x="514.667" y="419.012">&#160;</text><text fill="#000000" font-family="sans-serif" font-size="14" lengthAdjust="spacing" textLength="85.0869" x="519.1172" y="419.012">6000.4.10f1</text><text fill="#000000" font-family="sans-serif" font-size="14" lengthAdjust="spacing" textLength="71.9551" x="432" y="435.3089">(headless,</text><text fill="#000000" font-family="sans-serif" font-size="14" lengthAdjust="spacing" textLength="4.4502" x="503.9551" y="435.3089">&#160;</text><text fill="#000000" font-family="sans-serif" font-size="14" lengthAdjust="spacing" textLength="53.4844" x="508.4053" y="435.3089">pinned)</text></g><!--entity buildpipeline--><g id="elem_buildpipeline"><rect fill="#F1F1F1" height="55.5938" rx="2.5" ry="2.5" style="stroke:#181818;stroke-width:0.5;" width="216.6348" x="422.5" y="541.0169"/><polygon fill="#F1F1F1" points="622.1348,546.0169,622.1348,560.0169,634.1348,560.0169,634.1348,552.0169,628.1348,546.0169,622.1348,546.0169" style="stroke:#181818;stroke-width:0.5;"/><line style="stroke:#181818;stroke-width:0.5;" x1="628.1348" x2="628.1348" y1="546.0169" y2="552.0169"/><line style="stroke:#181818;stroke-width:0.5;" x1="634.1348" x2="628.1348" y1="552.0169" y2="552.0169"/><text fill="#000000" font-family="sans-serif" font-size="14" lengthAdjust="spacing" textLength="35.1436" x="432.5" y="567.012">Build</text><text fill="#000000" font-family="sans-serif" font-size="14" lengthAdjust="spacing" textLength="4.4502" x="467.6436" y="567.012">&#160;</text><text fill="#000000" font-family="sans-serif" font-size="14" lengthAdjust="spacing" textLength="55.542" x="472.0938" y="567.012">pipeline</text><text fill="#000000" font-family="sans-serif" font-size="14" lengthAdjust="spacing" textLength="68.2637" x="432.5" y="583.3089">(Windows</text><text fill="#000000" font-family="sans-serif" font-size="14" lengthAdjust="spacing" textLength="4.4502" x="500.7637" y="583.3089">&#160;</text><text fill="#000000" font-family="sans-serif" font-size="14" lengthAdjust="spacing" textLength="11.7305" x="505.2139" y="583.3089">+</text><text fill="#000000" font-family="sans-serif" font-size="14" lengthAdjust="spacing" textLength="4.4502" x="516.9443" y="583.3089">&#160;</text><text fill="#000000" font-family="sans-serif" font-size="14" lengthAdjust="spacing" textLength="37.7207" x="521.3945" y="583.3089">Linux</text><text fill="#000000" font-family="sans-serif" font-size="14" lengthAdjust="spacing" textLength="4.4502" x="559.1152" y="583.3089">&#160;</text><text fill="#000000" font-family="sans-serif" font-size="14" lengthAdjust="spacing" textLength="55.5693" x="563.5654" y="583.3089">targets)</text></g><!--entity releasesfolder--><g id="elem_releasesfolder"><rect fill="#F1F1F1" height="55.5938" rx="2.5" ry="2.5" style="stroke:#181818;stroke-width:0.5;" width="206.8799" x="427.5" y="751.0169"/><polygon fill="#F1F1F1" points="617.3799,756.0169,617.3799,770.0169,629.3799,770.0169,629.3799,762.0169,623.3799,756.0169,617.3799,756.0169" style="stroke:#181818;stroke-width:0.5;"/><line style="stroke:#181818;stroke-width:0.5;" x1="623.3799" x2="623.3799" y1="756.0169" y2="762.0169"/><line style="stroke:#181818;stroke-width:0.5;" x1="629.3799" x2="623.3799" y1="762.0169" y2="762.0169"/><text fill="#000000" font-family="sans-serif" font-size="14" lengthAdjust="spacing" textLength="63.3691" x="437.5" y="777.012">releases/</text><text fill="#000000" font-family="sans-serif" font-size="14" lengthAdjust="spacing" textLength="4.4502" x="500.8691" y="777.012">&#160;</text><text fill="#000000" font-family="sans-serif" font-size="14" lengthAdjust="spacing" textLength="40.6396" x="505.3193" y="777.012">folder</text><text fill="#000000" font-family="sans-serif" font-size="14" lengthAdjust="spacing" textLength="81.3682" x="437.5" y="793.3089">(committed</text><text fill="#000000" font-family="sans-serif" font-size="14" lengthAdjust="spacing" textLength="4.4502" x="518.8682" y="793.3089">&#160;</text><text fill="#000000" font-family="sans-serif" font-size="14" lengthAdjust="spacing" textLength="22.1621" x="523.3184" y="793.3089">ZIP</text><text fill="#000000" font-family="sans-serif" font-size="14" lengthAdjust="spacing" textLength="4.4502" x="545.4805" y="793.3089">&#160;</text><text fill="#000000" font-family="sans-serif" font-size="14" lengthAdjust="spacing" textLength="64.4492" x="549.9307" y="793.3089">archives)</text></g><!--entity ghrelease--><g id="elem_ghrelease"><rect fill="#F1F1F1" height="71.8906" rx="2.5" ry="2.5" style="stroke:#181818;stroke-width:0.5;" width="180.2402" x="212" y="743.0169"/><polygon fill="#F1F1F1" points="375.2402,748.0169,375.2402,762.0169,387.2402,762.0169,387.2402,754.0169,381.2402,748.0169,375.2402,748.0169" style="stroke:#181818;stroke-width:0.5;"/><line style="stroke:#181818;stroke-width:0.5;" x1="381.2402" x2="381.2402" y1="748.0169" y2="754.0169"/><line style="stroke:#181818;stroke-width:0.5;" x1="387.2402" x2="381.2402" y1="754.0169" y2="754.0169"/><text fill="#000000" font-family="sans-serif" font-size="14" lengthAdjust="spacing" textLength="48.5146" x="222" y="769.012">GitHub</text><text fill="#000000" font-family="sans-serif" font-size="14" lengthAdjust="spacing" textLength="4.4502" x="270.5146" y="769.012">&#160;</text><text fill="#000000" font-family="sans-serif" font-size="14" lengthAdjust="spacing" textLength="62.624" x="274.9648" y="769.012">Releases</text><text fill="#000000" font-family="sans-serif" font-size="14" lengthAdjust="spacing" textLength="119.3896" x="222" y="785.3089">(SemVer-tagged,</text><text fill="#000000" font-family="sans-serif" font-size="14" lengthAdjust="spacing" textLength="4.4502" x="341.3896" y="785.3089">&#160;</text><text fill="#000000" font-family="sans-serif" font-size="14" lengthAdjust="spacing" textLength="26.4004" x="345.8398" y="785.3089">e.g.</text><text fill="#000000" font-family="sans-serif" font-size="14" lengthAdjust="spacing" textLength="49.3691" x="222" y="801.6057">v0.4.0)</text></g><!--entity itchpage--><g id="elem_itchpage"><rect fill="#F1F1F1" height="55.5938" rx="2.5" ry="2.5" style="stroke:#181818;stroke-width:0.5;" width="179.0918" x="756.5" y="751.0169"/><polygon fill="#F1F1F1" points="918.5918,756.0169,918.5918,770.0169,930.5918,770.0169,930.5918,762.0169,924.5918,756.0169,918.5918,756.0169" style="stroke:#181818;stroke-width:0.5;"/><line style="stroke:#181818;stroke-width:0.5;" x1="924.5918" x2="924.5918" y1="756.0169" y2="762.0169"/><line style="stroke:#181818;stroke-width:0.5;" x1="930.5918" x2="924.5918" y1="762.0169" y2="762.0169"/><text fill="#000000" font-family="sans-serif" font-size="14" lengthAdjust="spacing" textLength="74.3887" x="766.5" y="777.012">Operation:</text><text fill="#000000" font-family="sans-serif" font-size="14" lengthAdjust="spacing" textLength="4.4502" x="840.8887" y="777.012">&#160;</text><text fill="#000000" font-family="sans-serif" font-size="14" lengthAdjust="spacing" textLength="70.2529" x="845.3389" y="777.012">EarthCore</text><text fill="#000000" font-family="sans-serif" font-size="14" lengthAdjust="spacing" textLength="42.123" x="766.5" y="793.3089">public</text><text fill="#000000" font-family="sans-serif" font-size="14" lengthAdjust="spacing" textLength="4.4502" x="808.623" y="793.3089">&#160;</text><text fill="#000000" font-family="sans-serif" font-size="14" lengthAdjust="spacing" textLength="39.7168" x="813.0732" y="793.3089">game</text><text fill="#000000" font-family="sans-serif" font-size="14" lengthAdjust="spacing" textLength="4.4502" x="852.79" y="793.3089">&#160;</text><text fill="#000000" font-family="sans-serif" font-size="14" lengthAdjust="spacing" textLength="34.9658" x="857.2402" y="793.3089">page</text></g><!--entity winbuild--><g id="elem_winbuild"><rect fill="#F1F1F1" height="55.5938" rx="2.5" ry="2.5" style="stroke:#181818;stroke-width:0.5;" width="136.5928" x="883.5" y="967.0169"/><polygon fill="#F1F1F1" points="1003.0928,972.0169,1003.0928,986.0169,1015.0928,986.0169,1015.0928,978.0169,1009.0928,972.0169,1003.0928,972.0169" style="stroke:#181818;stroke-width:0.5;"/><line style="stroke:#181818;stroke-width:0.5;" x1="1009.0928" x2="1009.0928" y1="972.0169" y2="978.0169"/><line style="stroke:#181818;stroke-width:0.5;" x1="1015.0928" x2="1009.0928" y1="978.0169" y2="978.0169"/><text fill="#000000" font-family="sans-serif" font-size="14" lengthAdjust="spacing" textLength="106.5928" x="893.5" y="993.012">MVP_vX.Y.Z.zip</text><text fill="#000000" font-family="sans-serif" font-size="14" lengthAdjust="spacing" textLength="75.1816" x="893.5" y="1009.3089">(unzipped)</text></g><!--entity winexe--><g id="elem_winexe"><rect fill="#F1F1F1" height="39.2969" rx="2.5" ry="2.5" style="stroke:#181818;stroke-width:0.5;" width="187.2881" x="865.5" y="1176.0169"/><polygon fill="#F1F1F1" points="1035.7881,1181.0169,1035.7881,1195.0169,1047.7881,1195.0169,1047.7881,1187.0169,1041.7881,1181.0169,1035.7881,1181.0169" style="stroke:#181818;stroke-width:0.5;"/><line style="stroke:#181818;stroke-width:0.5;" x1="1041.7881" x2="1041.7881" y1="1181.0169" y2="1187.0169"/><line style="stroke:#181818;stroke-width:0.5;" x1="1047.7881" x2="1041.7881" y1="1187.0169" y2="1187.0169"/><text fill="#000000" font-family="sans-serif" font-size="14" lengthAdjust="spacing" textLength="157.2881" x="875.5" y="1202.012">TheMoleProject2D.exe</text></g><!--entity linuxbuild--><g id="elem_linuxbuild"><rect fill="#F1F1F1" height="55.5938" rx="2.5" ry="2.5" style="stroke:#181818;stroke-width:0.5;" width="136.5928" x="117.5" y="967.0169"/><polygon fill="#F1F1F1" points="237.0928,972.0169,237.0928,986.0169,249.0928,986.0169,249.0928,978.0169,243.0928,972.0169,237.0928,972.0169" style="stroke:#181818;stroke-width:0.5;"/><line style="stroke:#181818;stroke-width:0.5;" x1="243.0928" x2="243.0928" y1="972.0169" y2="978.0169"/><line style="stroke:#181818;stroke-width:0.5;" x1="249.0928" x2="243.0928" y1="978.0169" y2="978.0169"/><text fill="#000000" font-family="sans-serif" font-size="14" lengthAdjust="spacing" textLength="106.5928" x="127.5" y="993.012">MVP_vX.Y.Z.zip</text><text fill="#000000" font-family="sans-serif" font-size="14" lengthAdjust="spacing" textLength="75.1816" x="127.5" y="1009.3089">(unzipped)</text></g><!--entity linuxexe--><g id="elem_linuxexe"><rect fill="#F1F1F1" height="55.5938" rx="2.5" ry="2.5" style="stroke:#181818;stroke-width:0.5;" width="158.2285" x="113" y="1167.5169"/><polygon fill="#F1F1F1" points="254.2285,1172.5169,254.2285,1186.5169,266.2285,1186.5169,266.2285,1178.5169,260.2285,1172.5169,254.2285,1172.5169" style="stroke:#181818;stroke-width:0.5;"/><line style="stroke:#181818;stroke-width:0.5;" x1="260.2285" x2="260.2285" y1="1172.5169" y2="1178.5169"/><line style="stroke:#181818;stroke-width:0.5;" x1="266.2285" x2="260.2285" y1="1178.5169" y2="1178.5169"/><text fill="#000000" font-family="sans-serif" font-size="14" lengthAdjust="spacing" textLength="128.2285" x="123" y="1193.512">LinuxBuild.x86_64</text><text fill="#000000" font-family="sans-serif" font-size="14" lengthAdjust="spacing" textLength="53.1221" x="123" y="1209.8089">(chmod</text><text fill="#000000" font-family="sans-serif" font-size="14" lengthAdjust="spacing" textLength="4.4502" x="176.1221" y="1209.8089">&#160;</text><text fill="#000000" font-family="sans-serif" font-size="14" lengthAdjust="spacing" textLength="25.4775" x="180.5723" y="1209.8089">+x)</text></g><g id="elem_GMN32"><path d="M578,1115.0169 L578,1276.345 L810.3389,1276.345 L810.3389,1125.0169 L800.3389,1115.0169 L578,1115.0169 " fill="#FEFFDD" style="stroke:#181818;stroke-width:0.5;"/><path d="M800.3389,1115.0169 L800.3389,1125.0169 L810.3389,1125.0169 L800.3389,1115.0169 " fill="#FEFFDD" style="stroke:#181818;stroke-width:1.0;"/><text fill="#000000" font-family="sans-serif" font-size="13" lengthAdjust="spacing" textLength="17.6782" x="584" y="1132.0838">No</text><text fill="#000000" font-family="sans-serif" font-size="13" lengthAdjust="spacing" textLength="4.1323" x="601.6782" y="1132.0838">&#160;</text><text fill="#000000" font-family="sans-serif" font-size="13" lengthAdjust="spacing" textLength="52.7935" x="605.8105" y="1132.0838">network</text><text fill="#000000" font-family="sans-serif" font-size="13" lengthAdjust="spacing" textLength="4.1323" x="658.604" y="1132.0838">&#160;</text><text fill="#000000" font-family="sans-serif" font-size="13" lengthAdjust="spacing" textLength="71.627" x="662.7363" y="1132.0838">connection</text><text fill="#000000" font-family="sans-serif" font-size="13" lengthAdjust="spacing" textLength="55.0405" x="584" y="1147.2166">required</text><text fill="#000000" font-family="sans-serif" font-size="13" lengthAdjust="spacing" textLength="4.1323" x="639.0405" y="1147.2166">&#160;</text><text fill="#000000" font-family="sans-serif" font-size="13" lengthAdjust="spacing" textLength="13.0635" x="643.1729" y="1147.2166">at</text><text fill="#000000" font-family="sans-serif" font-size="13" lengthAdjust="spacing" textLength="4.1323" x="656.2363" y="1147.2166">&#160;</text><text fill="#000000" font-family="sans-serif" font-size="13" lengthAdjust="spacing" textLength="55.3262" x="660.3687" y="1147.2166">runtime.</text><text fill="#000000" font-family="sans-serif" font-size="13" lengthAdjust="spacing" textLength="17.6782" x="584" y="1162.3494">No</text><text fill="#000000" font-family="sans-serif" font-size="13" lengthAdjust="spacing" textLength="4.1323" x="601.6782" y="1162.3494">&#160;</text><text fill="#000000" font-family="sans-serif" font-size="13" lengthAdjust="spacing" textLength="55.3833" x="605.8105" y="1162.3494">backend</text><text fill="#000000" font-family="sans-serif" font-size="13" lengthAdjust="spacing" textLength="4.1323" x="661.1938" y="1162.3494">&#160;</text><text fill="#000000" font-family="sans-serif" font-size="13" lengthAdjust="spacing" textLength="50.6987" x="665.3262" y="1162.3494">service,</text><text fill="#000000" font-family="sans-serif" font-size="13" lengthAdjust="spacing" textLength="64.4033" x="584" y="1177.4822">database,</text><text fill="#000000" font-family="sans-serif" font-size="13" lengthAdjust="spacing" textLength="4.1323" x="648.4033" y="1177.4822">&#160;</text><text fill="#000000" font-family="sans-serif" font-size="13" lengthAdjust="spacing" textLength="13.2983" x="652.5356" y="1177.4822">or</text><text fill="#000000" font-family="sans-serif" font-size="13" lengthAdjust="spacing" textLength="4.1323" x="665.834" y="1177.4822">&#160;</text><text fill="#000000" font-family="sans-serif" font-size="13" lengthAdjust="spacing" textLength="53.9487" x="669.9663" y="1177.4822">external</text><text fill="#000000" font-family="sans-serif" font-size="13" lengthAdjust="spacing" textLength="4.1323" x="723.915" y="1177.4822">&#160;</text><text fill="#000000" font-family="sans-serif" font-size="13" lengthAdjust="spacing" textLength="24.6987" x="728.0474" y="1177.4822">API.</text><text fill="#000000" font-family="sans-serif" font-size="13" lengthAdjust="spacing" textLength="38.7017" x="584" y="1192.615">Game</text><text fill="#000000" font-family="sans-serif" font-size="13" lengthAdjust="spacing" textLength="4.1323" x="622.7017" y="1192.615">&#160;</text><text fill="#000000" font-family="sans-serif" font-size="13" lengthAdjust="spacing" textLength="32.9316" x="626.834" y="1192.615">state</text><text fill="#000000" font-family="sans-serif" font-size="13" lengthAdjust="spacing" textLength="4.1323" x="659.7656" y="1192.615">&#160;</text><text fill="#000000" font-family="sans-serif" font-size="13" lengthAdjust="spacing" textLength="50.6226" x="663.8979" y="1192.615">persists</text><text fill="#000000" font-family="sans-serif" font-size="13" lengthAdjust="spacing" textLength="4.1323" x="714.5205" y="1192.615">&#160;</text><text fill="#000000" font-family="sans-serif" font-size="13" lengthAdjust="spacing" textLength="41.5962" x="718.6528" y="1192.615">locally</text><text fill="#000000" font-family="sans-serif" font-size="13" lengthAdjust="spacing" textLength="4.1323" x="760.249" y="1192.615">&#160;</text><text fill="#000000" font-family="sans-serif" font-size="13" lengthAdjust="spacing" textLength="19.2715" x="764.3813" y="1192.615">via</text><text fill="#000000" font-family="sans-serif" font-size="13" lengthAdjust="spacing" textLength="88.8926" x="584" y="1207.7478">SaveManager</text><text fill="#000000" font-family="sans-serif" font-size="13" lengthAdjust="spacing" textLength="37.1147" x="584" y="1222.8806">(JSON</text><text fill="#000000" font-family="sans-serif" font-size="13" lengthAdjust="spacing" textLength="4.1323" x="621.1147" y="1222.8806">&#160;</text><text fill="#000000" font-family="sans-serif" font-size="13" lengthAdjust="spacing" textLength="19.7983" x="625.2471" y="1222.8806">file</text><text fill="#000000" font-family="sans-serif" font-size="13" lengthAdjust="spacing" textLength="4.1323" x="645.0454" y="1222.8806">&#160;</text><text fill="#000000" font-family="sans-serif" font-size="13" lengthAdjust="spacing" textLength="13.0635" x="649.1777" y="1222.8806">at</text><text fill="#000000" font-family="sans-serif" font-size="13" lengthAdjust="spacing" textLength="211.3389" x="584" y="1238.0135">Application.persistentDataPath).</text><text fill="#000000" font-family="sans-serif" font-size="13" lengthAdjust="spacing" textLength="31.9097" x="584" y="1253.1463">Save</text><text fill="#000000" font-family="sans-serif" font-size="13" lengthAdjust="spacing" textLength="4.1323" x="615.9097" y="1253.1463">&#160;</text><text fill="#000000" font-family="sans-serif" font-size="13" lengthAdjust="spacing" textLength="26.5713" x="620.042" y="1253.1463">files</text><text fill="#000000" font-family="sans-serif" font-size="13" lengthAdjust="spacing" textLength="4.1323" x="646.6133" y="1253.1463">&#160;</text><text fill="#000000" font-family="sans-serif" font-size="13" lengthAdjust="spacing" textLength="21.3091" x="650.7456" y="1253.1463">are</text><text fill="#000000" font-family="sans-serif" font-size="13" lengthAdjust="spacing" textLength="4.1323" x="672.0547" y="1253.1463">&#160;</text><text fill="#000000" font-family="sans-serif" font-size="13" lengthAdjust="spacing" textLength="66.8599" x="676.187" y="1253.1463">local-only;</text><text fill="#000000" font-family="sans-serif" font-size="13" lengthAdjust="spacing" textLength="4.1323" x="743.0469" y="1253.1463">&#160;</text><text fill="#000000" font-family="sans-serif" font-size="13" lengthAdjust="spacing" textLength="16.1929" x="747.1792" y="1253.1463">no</text><text fill="#000000" font-family="sans-serif" font-size="13" lengthAdjust="spacing" textLength="81.3833" x="584" y="1268.2791">cross-device</text><text fill="#000000" font-family="sans-serif" font-size="13" lengthAdjust="spacing" textLength="4.1323" x="665.3833" y="1268.2791">&#160;</text><text fill="#000000" font-family="sans-serif" font-size="13" lengthAdjust="spacing" textLength="33.9854" x="669.5156" y="1268.2791">sync.</text></g><g id="elem_GMN35"><path d="M327,1152.5169 L327,1238.1809 L542.7969,1238.1809 L542.7969,1162.5169 L532.7969,1152.5169 L327,1152.5169 " fill="#FEFFDD" style="stroke:#181818;stroke-width:0.5;"/><path d="M532.7969,1152.5169 L532.7969,1162.5169 L542.7969,1162.5169 L532.7969,1152.5169 " fill="#FEFFDD" style="stroke:#181818;stroke-width:1.0;"/><text fill="#000000" font-family="sans-serif" font-size="13" lengthAdjust="spacing" textLength="36.8799" x="333" y="1169.5838">Same</text><text fill="#000000" font-family="sans-serif" font-size="13" lengthAdjust="spacing" textLength="4.1323" x="369.8799" y="1169.5838">&#160;</text><text fill="#000000" font-family="sans-serif" font-size="13" lengthAdjust="spacing" textLength="72.0967" x="374.0122" y="1169.5838">standalone</text><text fill="#000000" font-family="sans-serif" font-size="13" lengthAdjust="spacing" textLength="4.1323" x="446.1089" y="1169.5838">&#160;</text><text fill="#000000" font-family="sans-serif" font-size="13" lengthAdjust="spacing" textLength="40.479" x="450.2412" y="1169.5838">model</text><text fill="#000000" font-family="sans-serif" font-size="13" lengthAdjust="spacing" textLength="4.1323" x="490.7202" y="1169.5838">&#160;</text><text fill="#000000" font-family="sans-serif" font-size="13" lengthAdjust="spacing" textLength="14.7393" x="494.8525" y="1169.5838">as</text><text fill="#000000" font-family="sans-serif" font-size="13" lengthAdjust="spacing" textLength="62.4482" x="333" y="1184.7166">Windows.</text><text fill="#000000" font-family="sans-serif" font-size="13" lengthAdjust="spacing" textLength="84.938" x="333" y="1199.8494">Player-facing</text><text fill="#000000" font-family="sans-serif" font-size="13" lengthAdjust="spacing" textLength="4.1323" x="417.938" y="1199.8494">&#160;</text><text fill="#000000" font-family="sans-serif" font-size="13" lengthAdjust="spacing" textLength="43.8052" x="422.0703" y="1199.8494">access</text><text fill="#000000" font-family="sans-serif" font-size="13" lengthAdjust="spacing" textLength="4.1323" x="465.8755" y="1199.8494">&#160;</text><text fill="#000000" font-family="sans-serif" font-size="13" lengthAdjust="spacing" textLength="29.5547" x="470.0078" y="1199.8494">path</text><text fill="#000000" font-family="sans-serif" font-size="13" lengthAdjust="spacing" textLength="4.1323" x="499.5625" y="1199.8494">&#160;</text><text fill="#000000" font-family="sans-serif" font-size="13" lengthAdjust="spacing" textLength="10.3848" x="503.6948" y="1199.8494">is</text><text fill="#000000" font-family="sans-serif" font-size="13" lengthAdjust="spacing" textLength="27.7329" x="333" y="1214.9822">fully</text><text fill="#000000" font-family="sans-serif" font-size="13" lengthAdjust="spacing" textLength="4.1323" x="360.7329" y="1214.9822">&#160;</text><text fill="#000000" font-family="sans-serif" font-size="13" lengthAdjust="spacing" textLength="40.5679" x="364.8652" y="1214.9822">offline</text><text fill="#000000" font-family="sans-serif" font-size="13" lengthAdjust="spacing" textLength="31.3384" x="333" y="1230.115">once</text><text fill="#000000" font-family="sans-serif" font-size="13" lengthAdjust="spacing" textLength="4.1323" x="364.3384" y="1230.115">&#160;</text><text fill="#000000" font-family="sans-serif" font-size="13" lengthAdjust="spacing" textLength="21.3345" x="368.4707" y="1230.115">the</text><text fill="#000000" font-family="sans-serif" font-size="13" lengthAdjust="spacing" textLength="4.1323" x="389.8052" y="1230.115">&#160;</text><text fill="#000000" font-family="sans-serif" font-size="13" lengthAdjust="spacing" textLength="31.9668" x="393.9375" y="1230.115">build</text><text fill="#000000" font-family="sans-serif" font-size="13" lengthAdjust="spacing" textLength="4.1323" x="425.9043" y="1230.115">&#160;</text><text fill="#000000" font-family="sans-serif" font-size="13" lengthAdjust="spacing" textLength="10.3848" x="430.0366" y="1230.115">is</text><text fill="#000000" font-family="sans-serif" font-size="13" lengthAdjust="spacing" textLength="4.1323" x="440.4214" y="1230.115">&#160;</text><text fill="#000000" font-family="sans-serif" font-size="13" lengthAdjust="spacing" textLength="83.2432" x="444.5537" y="1230.115">downloaded.</text></g><!--link devbox to ci--><g id="link_devbox_ci"><path d="M523,188.0353 C523,188.3252 523,188.6157 523,188.9067 C523,198.2207 523,208.1147 523,218.0081 C523,227.9016 523,237.7945 523,247.1062 C523,248.2702 523,249.4251 523,250.5698 C523,251.1421 523,245.7119 523,246.279 " fill="none" id="devbox-to-ci" style="stroke:#181818;stroke-width:1.0;"/><polygon fill="#181818" points="523,252.279,527,243.279,523,247.279,519,243.279,523,252.279" style="stroke:#181818;stroke-width:1.0;"/><text fill="#000000" font-family="sans-serif" font-size="13" lengthAdjust="spacing" textLength="178.1914" x="524" y="224.3638">push / PR triggers workflow</text></g><!--link ci to ciunity--><g id="link_ci_ciunity"><path d="M523,301.1069 C523,303.5769 523,352.5469 523,386.8669 " fill="none" id="ci-to-ciunity" style="stroke:#181818;stroke-width:1.0;"/><polygon fill="#181818" points="523,392.8669,527,383.8669,523,387.8669,519,383.8669,523,392.8669" style="stroke:#181818;stroke-width:1.0;"/><text fill="#000000" font-family="sans-serif" font-size="13" lengthAdjust="spacing" textLength="94.4087" x="524" y="344.0838">installs pinned</text><text fill="#000000" font-family="sans-serif" font-size="13" lengthAdjust="spacing" textLength="90.2192" x="526.0947" y="359.2166">Editor version</text></g><!--link ciunity to buildpipeline--><g id="link_ciunity_buildpipeline"><path d="M524.49,449.1369 C525.91,475.1969 527.7328,508.3758 529.1628,534.5558 " fill="none" id="ciunity-to-buildpipeline" style="stroke:#181818;stroke-width:1.0;"/><polygon fill="#181818" points="529.49,540.5469,532.9932,531.3421,529.2173,535.5543,525.0051,531.7784,529.49,540.5469" style="stroke:#181818;stroke-width:1.0;"/><text fill="#000000" font-family="sans-serif" font-size="13" lengthAdjust="spacing" textLength="68.5991" x="560.8999" y="492.0838">runs tests,</text><text fill="#000000" font-family="sans-serif" font-size="13" lengthAdjust="spacing" textLength="134.3989" x="528" y="507.2166">builds player targets</text></g><!--link buildpipeline to releasesfolder--><g id="link_buildpipeline_releasesfolder"><path d="M531,597.2069 C531,637.0769 531,704.9469 531,744.8169 " fill="none" id="buildpipeline-to-releasesfolder" style="stroke:#181818;stroke-width:1.0;"/><polygon fill="#181818" points="531,750.8169,535,741.8169,531,745.8169,527,741.8169,531,750.8169" style="stroke:#181818;stroke-width:1.0;"/><text fill="#000000" font-family="sans-serif" font-size="13" lengthAdjust="spacing" textLength="112.4995" x="558.3745" y="658.0838">Windows + Linux</text><text fill="#000000" font-family="sans-serif" font-size="13" lengthAdjust="spacing" textLength="147.5703" x="540.8391" y="673.2166">build artifacts (manual</text><text fill="#000000" font-family="sans-serif" font-size="13" lengthAdjust="spacing" textLength="165.2485" x="532" y="688.3494">team upload after Sprint)</text></g><!--link buildpipeline to ghrelease--><g id="link_buildpipeline_ghrelease"><path d="M488.01,597.0369 C467.81,610.4969 443.87,627.5869 424,645.0169 C389.25,675.4869 357.9052,710.4077 334.3052,738.4277 " fill="none" id="buildpipeline-to-ghrelease" style="stroke:#181818;stroke-width:1.0;"/><polygon fill="#181818" points="330.44,743.0169,339.2972,738.71,333.661,739.1926,333.1784,733.5564,330.44,743.0169" style="stroke:#181818;stroke-width:1.0;"/><text fill="#000000" font-family="sans-serif" font-size="13" lengthAdjust="spacing" textLength="74.9468" x="436.3464" y="665.5838">attached to</text><text fill="#000000" font-family="sans-serif" font-size="13" lengthAdjust="spacing" textLength="97.6396" x="425" y="680.7166">tagged release</text></g><!--link buildpipeline to itchpage--><g id="link_buildpipeline_itchpage"><path d="M610.26,597.0669 C641.37,609.4269 676.6,625.6569 706,645.0169 C752.06,675.3469 792.7357,717.1396 818.7857,746.3396 " fill="none" id="buildpipeline-to-itchpage" style="stroke:#181818;stroke-width:1.0;"/><polygon fill="#181818" points="822.78,750.8169,819.7734,741.4381,819.4514,747.0858,813.8038,746.7638,822.78,750.8169" style="stroke:#181818;stroke-width:1.0;"/><text fill="#000000" font-family="sans-serif" font-size="13" lengthAdjust="spacing" textLength="97.0938" x="768.5513" y="665.5838">manual upload</text><text fill="#000000" font-family="sans-serif" font-size="13" lengthAdjust="spacing" textLength="106.1963" x="764" y="680.7166">(added Sprint 5)</text></g><!--link releasesfolder to winbuild--><g id="link_releasesfolder_winbuild"><path d="M560.63,807.1469 C592.48,836.2869 638.76,878.5169 640,879.0169 C664.72,889.0469 856.66,874.0869 880,887.0169 C911.14,904.2669 929.0281,935.8428 939.8981,961.4828 " fill="none" id="releasesfolder-to-winbuild" style="stroke:#181818;stroke-width:1.0;"/><polygon fill="#181818" points="942.24,967.0069,942.4098,957.1595,940.2884,962.4035,935.0444,960.282,942.24,967.0069" style="stroke:#181818;stroke-width:1.0;"/><text fill="#000000" font-family="sans-serif" font-size="13" lengthAdjust="spacing" textLength="62.8608" x="690.1626" y="860.0838">download</text><text fill="#000000" font-family="sans-serif" font-size="13" lengthAdjust="spacing" textLength="161.186" x="641" y="875.2166">(local setup instructions)</text></g><!--link releasesfolder to linuxbuild--><g id="link_releasesfolder_linuxbuild"><path d="M490.97,807.1269 C474.02,818.9769 454.24,833.2769 437,847.0169 C420.26,860.3569 420.79,870.8469 401,879.0169 C371.79,891.0769 286.52,871.4769 259,887.0169 C228.06,904.4869 209.9238,935.6638 198.7138,961.1738 " fill="none" id="releasesfolder-to-linuxbuild" style="stroke:#181818;stroke-width:1.0;"/><polygon fill="#181818" points="196.3,966.6669,203.5828,960.0365,198.3115,962.0893,196.2587,956.8181,196.3,966.6669" style="stroke:#181818;stroke-width:1.0;"/><text fill="#000000" font-family="sans-serif" font-size="13" lengthAdjust="spacing" textLength="62.8608" x="487.1626" y="860.0838">download</text><text fill="#000000" font-family="sans-serif" font-size="13" lengthAdjust="spacing" textLength="161.186" x="438" y="875.2166">(local setup instructions)</text></g><!--link ghrelease to winbuild--><g id="link_ghrelease_winbuild"><path d="M287.56,815.3169 C281.42,836.6169 278.91,862.7069 295,879.0169 C306.41,890.5869 865.71,879.2769 880,887.0169 C911.31,903.9669 929.176,935.6052 939.986,961.3352 " fill="none" id="ghrelease-to-winbuild" style="stroke:#181818;stroke-width:1.0;"/><polygon fill="#181818" points="942.31,966.8669,942.5117,957.0201,940.3733,962.2572,935.1362,960.1188,942.31,966.8669" style="stroke:#181818;stroke-width:1.0;"/><text fill="#000000" font-family="sans-serif" font-size="13" lengthAdjust="spacing" textLength="62.8608" x="312.8562" y="860.0838">download</text><text fill="#000000" font-family="sans-serif" font-size="13" lengthAdjust="spacing" textLength="96.5732" x="296" y="875.2166">(release asset)</text></g><!--link ghrelease to linuxbuild--><g id="link_ghrelease_linuxbuild"><path d="M211.95,804.5769 C191.83,814.4369 172.95,828.1169 161,847.0169 C137.77,883.7769 153.176,930.1962 168.316,961.4762 " fill="none" id="ghrelease-to-linuxbuild" style="stroke:#181818;stroke-width:1.0;"/><polygon fill="#181818" points="170.93,966.8769,170.6094,957.0332,168.7517,962.3763,163.4086,960.5186,170.93,966.8769" style="stroke:#181818;stroke-width:1.0;"/><text fill="#000000" font-family="sans-serif" font-size="13" lengthAdjust="spacing" textLength="62.8608" x="178.8562" y="860.0838">download</text><text fill="#000000" font-family="sans-serif" font-size="13" lengthAdjust="spacing" textLength="96.5732" x="162" y="875.2166">(release asset)</text></g><!--link itchpage to winbuild--><g id="link_itchpage_winbuild"><path d="M896.49,807.2669 C911.25,817.7369 925.87,831.0769 935,847.0169 C956.39,884.3569 957.4726,929.7804 955.3826,960.8604 " fill="none" id="itchpage-to-winbuild" style="stroke:#181818;stroke-width:1.0;"/><polygon fill="#181818" points="954.98,966.8469,959.5748,958.1355,955.3155,961.8581,951.5929,957.5988,954.98,966.8469" style="stroke:#181818;stroke-width:1.0;"/><text fill="#000000" font-family="sans-serif" font-size="13" lengthAdjust="spacing" textLength="62.8608" x="959.8384" y="860.0838">download</text><text fill="#000000" font-family="sans-serif" font-size="13" lengthAdjust="spacing" textLength="86.5376" x="948" y="875.2166">(itch.io page)</text></g><!--link itchpage to linuxbuild--><g id="link_itchpage_linuxbuild"><path d="M843.43,807.3869 C839.64,830.7169 830.25,862.9369 807,879.0169 C781.96,896.3369 285.82,872.5969 259,887.0169 C227.51,903.9469 209.3333,935.6119 198.3033,961.3519 " fill="none" id="itchpage-to-linuxbuild" style="stroke:#181818;stroke-width:1.0;"/><polygon fill="#181818" points="195.94,966.8669,203.1615,960.1699,197.9094,962.2711,195.8082,957.0189,195.94,966.8669" style="stroke:#181818;stroke-width:1.0;"/><text fill="#000000" font-family="sans-serif" font-size="13" lengthAdjust="spacing" textLength="62.8608" x="843.8384" y="860.0838">download</text><text fill="#000000" font-family="sans-serif" font-size="13" lengthAdjust="spacing" textLength="86.5376" x="832" y="875.2166">(itch.io page)</text></g><!--link winbuild to winexe--><g id="link_winbuild_winexe"><path d="M952.96,1023.1969 C954.4,1064.1869 956.8871,1134.7507 958.1371,1169.9507 " fill="none" id="winbuild-to-winexe" style="stroke:#181818;stroke-width:1.0;"/><polygon fill="#181818" points="958.35,1175.9469,962.0281,1166.8106,958.1726,1170.95,954.0331,1167.0945,958.35,1175.9469" style="stroke:#181818;stroke-width:1.0;"/><text fill="#000000" font-family="sans-serif" font-size="13" lengthAdjust="spacing" textLength="65.2539" x="956" y="1073.5838">unzip, run</text></g><!--link linuxbuild to linuxexe--><g id="link_linuxbuild_linuxexe"><path d="M186.82,1023.1969 C187.97,1061.1069 189.848,1123.4496 190.998,1161.3496 " fill="none" id="linuxbuild-to-linuxexe" style="stroke:#181818;stroke-width:1.0;"/><polygon fill="#181818" points="191.18,1167.3469,194.9052,1158.2297,191.0284,1162.3492,186.9089,1158.4723,191.18,1167.3469" style="stroke:#181818;stroke-width:1.0;"/><text fill="#000000" font-family="sans-serif" font-size="13" lengthAdjust="spacing" textLength="39.2983" x="218.8818" y="1066.0838">unzip,</text><text fill="#000000" font-family="sans-serif" font-size="13" lengthAdjust="spacing" textLength="97.062" x="190" y="1081.2166">chmod +x, run</text></g><!--link winmachine to GMN32--><g id="link_winmachine_GMN32"><path d="M833.8298,1006.971 C833.7519,1007.0755 833.6736,1007.1806 833.5947,1007.2863 C833.2794,1007.7093 832.9563,1008.1428 832.6256,1008.5864 C827.3344,1015.6847 820.0975,1025.3925 811.6875,1036.6731 C794.8675,1059.2344 773.355,1088.0869 753.33,1114.9369 " fill="none" id="winmachine-GMN32" style="stroke:#181818;stroke-width:1.0;stroke-dasharray:7.0,7.0;"/></g><!--link linuxmachine to GMN35--><g id="link_linuxmachine_GMN35"><path d="M303.1869,1007.6203 C303.281,1007.7538 303.3759,1007.8882 303.4714,1008.0237 C303.6625,1008.2947 303.8565,1008.5696 304.0532,1008.8485 C304.4466,1009.4063 304.8512,1009.9799 305.2665,1010.5687 C306.0971,1011.7463 306.9707,1012.985 307.8847,1014.2808 C315.1963,1024.6472 325.0863,1038.67 336.14,1054.3431 C358.2475,1085.6894 385.01,1123.6369 405.11,1152.1369 " fill="none" id="linuxmachine-GMN35" style="stroke:#181818;stroke-width:1.0;stroke-dasharray:7.0,7.0;"/></g><!--SRC=[dLRjRjis5FslfxZ8Bnkr5RVeWg431cH9qMLOMYFPqgqmKD3IbSM58ZNoKhOt3DX3x0dt9Bia9STs4o3OhoZGEUT-dYkJ98NmeKKhI1hz1juAI_M5iGZ__lqFN6AhpBP1JN0dSPrbxbxgLbZHmDgAzgCigOPNircMQLCYd5nYXygqaN0jYbfgNEWH8UCRR9PenoSW79JOBSq6_im0E9oiH45myhEMj8MtfIHZuMmsc-MlyvUpwkL2jzRyXWmPEUDjWQT912Co-sk8_KxIztu9vqKen2tqnHNSUAtHmiWllIO_LOBGKM8NyjdXHpMAKg5p4sWb2vQ3WW-K0v7ll5GberfKgVIFKfTcxU05_2Yrtm09kq9oIM4Pq0Cu558euykXaWXPIQgvgCDKBIeK3jqfL4QLQ3bEOPf64c49dwxc3ENMTzY76U09VA3Kz-ocHx3GBJPtQASaLYii9u3vAeSkz6AMn5PrBxUNhwIYpgM9xyEpD4S9FxPVF5Q_LBA0bMWGMh727J_yyp3N2-_8D3p6KvWhiUM7XytgsvjIMqlTf3T7uQ_lvf-xN_9Vyq_v7x9bcjVyjnq6oRmuYGFEJpLU6uNpj7glBdFSu83cn-Ub5sUUWgZm-B_IYyml4upQST_opTTddyzUXose6rF2Y_sGVQwzuwRJRyFclu7MkpfaV0Da9O_QSc76tbVAh3C695pSRmPBxKWevVhrN-ZU9HtJUAZPW0oiWvrchlNQGR2TconIcraczQdtGdP82IA76yigHpRgbNRTS31gXFP2BNIyDPwlbk3N5J7xjhLIq_YHCBjTvWY2Y8V3_Y738d7xXpGUOGvRoiGKk0_9Cn1boTGK5BuQPzbHCO4-R1pJkIpTCvKfMCWX-JQstFfqoiQFIJninND57gfzEeK18Hmh75EU2db4slNcwJ3zmOYkFo8y5UIGakrq-o2yveoFnfc4dSlsT7Qo-w257ioIyEncGbWQOZE3gVQE2RlklG6D50m2XM4Bn9RoUlpkfULX2meI91lC4tWfYdlK9O_1ThB02PI2n99xD06s3MvuBJLFwNn-5GZlmW5aXt7yDZYAlG9nZ6eBdHHmApgy5feB3yTxzCFjX_TGIVviSzppjkKR6czhtfFvstl9uUQ2wd6G3_I8T-mNJCfJezNs6z062ckSc_9vu3p1RNMHPo7pq8qlUh9_mw9mobkNGXas1hSJLJWylLj3y7GIfsnIgLSWYe8_epn3_jKW7LG-b6YgIYL1epa7gZ4TaO0O5W3BlRJ-0m00]--></g></svg>